<svg xmlns="http://www.w3.org/2000/svg" width="1200" height="360" viewBox="0 0 1200 360">
  <defs>
    <linearGradient id="bg" x1="0" y1="0" x2="1" y2="1"><stop stop-color="#080b19"/><stop offset="0.55" stop-color="#160b27"/><stop offset="1" stop-color="#071e2b"/></linearGradient>
    <linearGradient id="neon"><stop stop-color="#00f0ff"/><stop offset="0.5" stop-color="#a879ff"/><stop offset="1" stop-color="#ff4da6"/></linearGradient>
    <radialGradient id="violet-halo"><stop stop-color="#a879ff" stop-opacity="0.19"/><stop offset="1" stop-color="#a879ff" stop-opacity="0"/></radialGradient>
    <radialGradient id="cyan-halo"><stop stop-color="#00f0ff" stop-opacity="0.14"/><stop offset="1" stop-color="#00f0ff" stop-opacity="0"/></radialGradient>
    <radialGradient id="pink-halo"><stop stop-color="#ff4da6" stop-opacity="0.11"/><stop offset="1" stop-color="#ff4da6" stop-opacity="0"/></radialGradient>
    <linearGradient id="signal-0">
    <stop stop-color="#00f0ff" stop-opacity="0"/>
    <stop offset="0.22" stop-color="#00f0ff"/>
    <stop offset="0.72" stop-color="#a879ff"/>
    <stop offset="1" stop-color="#a879ff" stop-opacity="0.15"/>
  </linearGradient><linearGradient id="signal-1">
    <stop stop-color="#a879ff" stop-opacity="0"/>
    <stop offset="0.22" stop-color="#a879ff"/>
    <stop offset="0.72" stop-color="#ff4da6"/>
    <stop offset="1" stop-color="#ff4da6" stop-opacity="0.15"/>
  </linearGradient><linearGradient id="signal-2">
    <stop stop-color="#ff4da6" stop-opacity="0"/>
    <stop offset="0.22" stop-color="#ff4da6"/>
    <stop offset="0.72" stop-color="#ffb347"/>
    <stop offset="1" stop-color="#ffb347" stop-opacity="0.15"/>
  </linearGradient><linearGradient id="signal-3">
    <stop stop-color="#ffb347" stop-opacity="0"/>
    <stop offset="0.22" stop-color="#ffb347"/>
    <stop offset="0.72" stop-color="#579bff"/>
    <stop offset="1" stop-color="#579bff" stop-opacity="0.15"/>
  </linearGradient><linearGradient id="signal-4">
    <stop stop-color="#579bff" stop-opacity="0"/>
    <stop offset="0.22" stop-color="#579bff"/>
    <stop offset="0.72" stop-color="#00f0ff"/>
    <stop offset="1" stop-color="#00f0ff" stop-opacity="0.15"/>
  </linearGradient>
    <pattern id="scan" width="4" height="4" patternUnits="userSpaceOnUse"><path d="M0 3.5H4" stroke="#000" stroke-opacity="0.11"/></pattern>
    <pattern id="grid" width="40" height="40" patternUnits="userSpaceOnUse"><path d="M40 0H0V40" fill="none" stroke="#b7b7ff" stroke-opacity="0.028"/></pattern>
  </defs>
  <rect width="1200" height="360" rx="18" fill="url(#bg)"/>
  <ellipse cx="790" cy="80" rx="400" ry="195" fill="url(#violet-halo)"/>
  <ellipse cx="1090" cy="265" rx="270" ry="190" fill="url(#cyan-halo)"/>
  <ellipse cx="360" cy="330" rx="470" ry="150" fill="url(#pink-halo)"/>
  <rect width="1200" height="360" rx="18" fill="url(#grid)"/>
  <circle cx="650" cy="25" r="1.4" fill="#00f0ff" opacity="0.28"/><circle cx="733" cy="78" r="0.7" fill="#a879ff" opacity="0.38097651817694755"/><circle cx="816" cy="131" r="0.7" fill="#ff4da6" opacity="0.3891156912190818"/><circle cx="899" cy="184" r="0.7" fill="#ffb347" opacity="0.29693440096718404"/><circle cx="982" cy="237" r="0.7" fill="#579bff" opacity="0.18918370056304862"/><circle cx="1065" cy="290" r="1.4" fill="#00f0ff" opacity="0.1649290870404234"/><circle cx="1148" cy="68" r="0.7" fill="#a879ff" opacity="0.2464701402161289"/><circle cx="711" cy="121" r="0.7" fill="#ff4da6" opacity="0.35883839184625466"/><circle cx="794" cy="174" r="0.7" fill="#ffb347" opacity="0.3987229895948058"/><circle cx="877" cy="227" r="0.7" fill="#579bff" opacity="0.3294542182290108"/><circle cx="960" cy="280" r="1.4" fill="#00f0ff" opacity="0.21471746669327563"/><circle cx="1043" cy="58" r="0.7" fill="#a879ff" opacity="0.16000117521391558"/><circle cx="1126" cy="111" r="0.7" fill="#ff4da6" opacity="0.2156112498399478"/><circle cx="689" cy="164" r="0.7" fill="#ffb347" opacity="0.3304200444191969"/><circle cx="772" cy="217" r="0.7" fill="#579bff" opacity="0.3988728826833844"/><circle cx="855" cy="270" r="1.4" fill="#00f0ff" opacity="0.358034540818854"/><circle cx="938" cy="48" r="0.7" fill="#a879ff" opacity="0.24545160200019217"/><circle cx="1021" cy="101" r="0.7" fill="#ff4da6" opacity="0.1646323009744532"/><circle cx="1104" cy="154" r="0.7" fill="#ffb347" opacity="0.18988153038739886"/><circle cx="667" cy="207" r="0.7" fill="#579bff" opacity="0.29798526515955426"/><circle cx="750" cy="260" r="1.4" fill="#00f0ff" opacity="0.38955343008731536"/><circle cx="833" cy="38" r="0.7" fill="#a879ff" opacity="0.3803986766243267"/><circle cx="916" cy="91" r="0.7" fill="#ff4da6" opacity="0.27893784288515155"/><circle cx="999" cy="144" r="0.7" fill="#ffb347" opacity="0.1784535514989795"/><circle cx="1082" cy="197" r="0.7" fill="#579bff" opacity="0.17133059655920516"/><circle cx="1165" cy="250" r="1.4" fill="#00f0ff" opacity="0.26411778998826724"/><circle cx="728" cy="28" r="0.7" fill="#a879ff" opacity="0.3715070140575523"/><circle cx="811" cy="81" r="0.7" fill="#ff4da6" opacity="0.39476511140854037"/><circle cx="894" cy="134" r="0.7" fill="#ffb347" opacity="0.3125086945969443"/><circle cx="977" cy="187" r="0.7" fill="#579bff" opacity="0.2003639338944439"/><circle cx="1060" cy="240" r="1.4" fill="#00f0ff" opacity="0.1614362051088566"/><circle cx="1143" cy="293" r="0.7" fill="#a879ff" opacity="0.23151548256123222"/><circle cx="706" cy="71" r="0.7" fill="#ff4da6" opacity="0.34617120174900284"/><circle cx="789" cy="124" r="0.7" fill="#ffb347" opacity="0.39998942321287206"/><circle cx="872" cy="177" r="0.7" fill="#579bff" opacity="0.34348992233440284"/><circle cx="955" cy="230" r="1.4" fill="#00f0ff" opacity="0.22861807966046188"/><circle cx="1038" cy="283" r="0.7" fill="#a879ff" opacity="0.1609865375868261"/><circle cx="1121" cy="61" r="0.7" fill="#ff4da6" opacity="0.20277542399716006"/><circle cx="684" cy="114" r="0.7" fill="#ffb347" opacity="0.31556422944512624"/><circle cx="767" cy="167" r="0.7" fill="#579bff" opacity="0.39565544635409056"/><circle cx="850" cy="220" r="1.4" fill="#00f0ff" opacity="0.36941357925752183"/><circle cx="933" cy="273" r="0.7" fill="#a879ff" opacity="0.2609652797434349"/><circle cx="1016" cy="51" r="0.7" fill="#ff4da6" opacity="0.17001741425012395"/>
  <path d="M1123.4717842778998,146.55701896618277 Q950,210 808.9646153066499,241.29912034488927" fill="none" stroke="#00f0ff" stroke-width="0.6" opacity="0.12"/><circle cx="1123.4717842778998" cy="146.55701896618277" r="2" fill="#00f0ff" opacity="0"/><circle cx="1127.4717842778998" cy="148.55701896618277" r="1.4" fill="#00f0ff" opacity="0.38"/><circle cx="1118.7996405979807" cy="152.46775168539918" r="0.8" fill="#00f0ff" opacity="0.5314647772654213"/><circle cx="1126.8530513996413" cy="139.5603695706912" r="0.8" fill="#00f0ff" opacity="0.5436735368286227"/><circle cx="1132.2722255713934" cy="153.12003494177682" r="0.8" fill="#00f0ff" opacity="0.4054016014507761"/><circle cx="1108.5702011997219" cy="143.412442407331" r="0.8" fill="#00f0ff" opacity="0.24377555084457292"/><circle cx="1133.797062141514" cy="138.83051897808613" r="0.8" fill="#00f0ff" opacity="0.2073936305606351"/><circle cx="1117.4127161597366" cy="155.7636667306309" r="0.8" fill="#00f0ff" opacity="0.32970521032419337"/><circle cx="1115.4700533898126" cy="134.911476717638" r="1.4" fill="#00f0ff" opacity="0.498257587769382"/><circle cx="1142.5446987844682" cy="150.99638364190156" r="0.8" fill="#00f0ff" opacity="0.5580844843922088"/><circle cx="1108.397449411833" cy="153.0074886754507" r="0.8" fill="#00f0ff" opacity="0.4541813273435162"/><circle cx="1132.7258306836204" cy="135.86062821967138" r="0.8" fill="#00f0ff" opacity="0.28207620003991346"/><circle cx="1128.6958844865321" cy="162.15879879223812" r="0.8" fill="#00f0ff" opacity="0.2000017628208734"/><circle cx="1102.4503699774364" cy="140.440288078872" r="0.8" fill="#00f0ff" opacity="0.2834168747599217"/><circle cx="1143.019889859501" cy="143.165764810833" r="0.8" fill="#00f0ff" opacity="0.4556300666287954"/><circle cx="1110.7473298060277" cy="158.64429681567034" r="1.4" fill="#00f0ff" opacity="0.5583093240250767"/><circle cx="1122.1441413242646" cy="128.54699440293373" r="0.8" fill="#00f0ff" opacity="0.497051811228281"/><circle cx="1144.4736839755506" cy="155.21509467631515" r="0.8" fill="#00f0ff" opacity="0.32817740300028825"/><circle cx="1099.889078714666" cy="146.12223461247794" r="0.8" fill="#00f0ff" opacity="0.20694845146167978"/><circle cx="1139.8515620235064" cy="133.5039143111032" r="0.8" fill="#00f0ff" opacity="0.2448222955810983"/><circle cx="1120.2918805342083" cy="165.3931166286963" r="0.8" fill="#00f0ff" opacity="0.40697789773933146"/><circle cx="1104.3180437334288" cy="134.3075906601413" r="0.8" fill="#00f0ff" opacity="0.544330145130973"/><circle cx="1150.3375027970742" cy="150.68985678098088" r="1.4" fill="#00f0ff" opacity="0.5305980149364901"/><path d="M1085.6505793302176,245.8006752458237 Q1003.8541430277054,191.6120922347256 778.450030505606,140.94367181970318" fill="none" stroke="#a879ff" stroke-width="0.6" opacity="0.12"/><circle cx="1059.349400055631" cy="230.39006300991971" r="2" fill="#a879ff" opacity="0.1506040792565066"/><circle cx="1088.4374061676062" cy="249.80927230034237" r="1.4" fill="#a879ff" opacity="0.5314647772654213"/><circle cx="1078.6237227472566" cy="247.08987881196714" r="0.8" fill="#a879ff" opacity="0.5436735368286227"/><circle cx="1096.657546086098" cy="241.62122263901782" r="0.8" fill="#a879ff" opacity="0.4054016014507761"/><circle cx="1084.9145464534124" cy="254.11796865245734" r="0.8" fill="#a879ff" opacity="0.24377555084457292"/><circle cx="1076.6442032895054" cy="236.23524384346007" r="0.8" fill="#a879ff" opacity="0.2073936305606351"/><circle cx="1097.9920703541868" cy="246.22905044820376" r="0.8" fill="#a879ff" opacity="0.32970521032419337"/><circle cx="1069.5703429595917" cy="249.59859809403548" r="0.8" fill="#a879ff" opacity="0.498257587769382"/><circle cx="1091.017922150949" cy="233.35059119912844" r="1.4" fill="#a879ff" opacity="0.5580844843922088"/><circle cx="1095.1704929898644" cy="257.527786751117" r="0.8" fill="#a879ff" opacity="0.4541813273435162"/><circle cx="1070.5740458647085" cy="241.89261716401154" r="0.8" fill="#a879ff" opacity="0.28207620003991346"/><circle cx="1105.3399732778128" cy="243.06040456207737" r="0.8" fill="#a879ff" opacity="0.2000017628208734"/><circle cx="1074.9022953475953" cy="260.44459462104595" r="0.8" fill="#a879ff" opacity="0.2834168747599217"/><circle cx="1077.7763022188155" cy="232.58367884403526" r="0.8" fill="#a879ff" opacity="0.4556300666287954"/><circle cx="1102.2780391200188" cy="254.2433349188552" r="0.8" fill="#a879ff" opacity="0.5583093240250767"/><circle cx="1063.3595575732425" cy="247.47518437774613" r="1.4" fill="#a879ff" opacity="0.497051811228281"/><circle cx="1101.9241878242992" cy="231.0245665801143" r="0.8" fill="#a879ff" opacity="0.32817740300028825"/><circle cx="1090.1239847016138" cy="260.5693438574776" r="0.8" fill="#a879ff" opacity="0.20694845146167978"/><circle cx="1068.502785699446" cy="232.72439840987434" r="0.8" fill="#a879ff" opacity="0.2448222955810983"/><circle cx="1109.682726686677" cy="245.40677095607185" r="0.8" fill="#a879ff" opacity="0.40697789773933146"/><circle cx="1064.1923350620245" cy="258.80117961546404" r="0.8" fill="#a879ff" opacity="0.544330145130973"/><circle cx="1086.0193156714088" cy="229.10301936953064" r="0.8" fill="#a879ff" opacity="0.5305980149364901"/><circle cx="1102.219458682065" cy="262.71359617089917" r="1.4" fill="#a879ff" opacity="0.3784067643277273"/><path d="M945.6817213793397,287.9648770133708 Q1008.1950353168436,153.35412653811431 877.1160717154871,62.46823105535951" fill="none" stroke="#ff4da6" stroke-width="0.6" opacity="0.12"/><circle cx="965.6001638302513" cy="214.61382408812233" r="2" fill="#ff4da6" opacity="0.48900837358252575"/><circle cx="945.5649232901345" cy="292.763683101887" r="1.4" fill="#ff4da6" opacity="0.5436735368286227"/><circle cx="941.7504377857093" cy="284.851812860803" r="0.8" fill="#ff4da6" opacity="0.4054016014507761"/><circle cx="959.1145166971817" cy="289.5774237667373" r="0.8" fill="#ff4da6" opacity="0.24377555084457292"/><circle cx="936.5037892498804" cy="292.7156537940272" r="0.8" fill="#ff4da6" opacity="0.2073936305606351"/><circle cx="947.3626318214419" cy="276.8862668345961" r="0.8" fill="#ff4da6" opacity="0.32970521032419337"/><circle cx="951.0708510847254" cy="295.08724842863745" r="0.8" fill="#ff4da6" opacity="0.498257587769382"/><circle cx="928.1625009412435" cy="282.9623826647444" r="0.8" fill="#ff4da6" opacity="0.5580844843922088"/><circle cx="961.1878774925998" cy="281.66753381624784" r="1.4" fill="#ff4da6" opacity="0.4541813273435162"/><circle cx="941.0775530014955" cy="299.97237829011686" r="0.8" fill="#ff4da6" opacity="0.28207620003991346"/><circle cx="941.2190175686816" cy="276.83885909546325" r="0.8" fill="#ff4da6" opacity="0.2000017628208734"/><circle cx="964.4881045637964" cy="296.00779064159644" r="0.8" fill="#ff4da6" opacity="0.2834168747599217"/><circle cx="924.7869802073097" cy="293.92092762583076" r="0.8" fill="#ff4da6" opacity="0.4556300666287954"/><circle cx="954.2434554045705" cy="276.4029032478248" r="0.8" fill="#ff4da6" opacity="0.5583093240250767"/><circle cx="948.1470188446965" cy="303.1857037147962" r="0.8" fill="#ff4da6" opacity="0.497051811228281"/><circle cx="927.3965552418028" cy="277.58089559920717" r="1.4" fill="#ff4da6" opacity="0.32817740300028825"/><circle cx="970.9041408977278" cy="284.2803147043734" r="0.8" fill="#ff4da6" opacity="0.20694845146167978"/><circle cx="932.3775123769223" cy="298.69106544276804" r="0.8" fill="#ff4da6" opacity="0.2448222955810983"/><circle cx="945.9721049662563" cy="269.3124738372874" r="0.8" fill="#ff4da6" opacity="0.40697789773933146"/><circle cx="962.0722481461049" cy="300.23335431822466" r="0.8" fill="#ff4da6" opacity="0.544330145130973"/><circle cx="917.4691180500728" cy="287.7212291480943" r="0.8" fill="#ff4da6" opacity="0.5305980149364901"/><circle cx="964.2104171230283" cy="277.97130853654295" r="0.8" fill="#ff4da6" opacity="0.3784067643277273"/><circle cx="941.9797659962989" cy="308.61121738180447" r="1.4" fill="#ff4da6" opacity="0.2276803272484693"/><path d="M808.9646153066499,241.29912034488927 Q959.0316805158315,130.40030013598218 1030.6651974847998,64.9664055546708" fill="none" stroke="#ffb347" stroke-width="0.6" opacity="0.12"/><circle cx="923.1873664214194" cy="154.59368936273137" r="2" fill="#ffb347" opacity="0.7603875471609678"/><circle cx="806.0150404444848" cy="245.1904172504325" r="1.4" fill="#ffb347" opacity="0.4054016014507761"/><circle cx="811.701457557943" cy="236.6734064334573" r="0.8" fill="#ffb347" opacity="0.24377555084457292"/><circle cx="818.1518930600425" cy="248.1651199391032" r="0.8" fill="#ffb347" opacity="0.2073936305606351"/><circle cx="797.5601016495751" cy="239.325987569873" r="0.8" fill="#ffb347" opacity="0.32970521032419337"/><circle cx="819.6421271058704" cy="234.53288139769168" r="0.8" fill="#ffb347" opacity="0.498257587769382"/><circle cx="802.6500182987548" cy="249.59412071740442" r="0.8" fill="#ffb347" opacity="0.5580844843922088"/><circle cx="799.461463412116" cy="229.44273150031637" r="0.8" fill="#ffb347" opacity="0.4541813273435162"/><circle cx="825.2292562025372" cy="244.3796306074596" r="1.4" fill="#ffb347" opacity="0.28207620003991346"/><circle cx="794.2327623379481" cy="246.40957366206777" r="0.8" fill="#ffb347" opacity="0.2000017628208734"/><circle cx="819.2935627602387" cy="230.47402812684962" r="0.8" fill="#ffb347" opacity="0.2834168747599217"/><circle cx="816.1052519030231" cy="256.41134762690575" r="0.8" fill="#ffb347" opacity="0.4556300666287954"/><circle cx="789.904048725946" cy="236.10723849429394" r="0.8" fill="#ffb347" opacity="0.5583093240250767"/><circle cx="827.281370610413" cy="239.14354284340394" r="0.8" fill="#ffb347" opacity="0.497051811228281"/><circle cx="794.6168115431988" cy="254.13082210944881" r="0.8" fill="#ffb347" opacity="0.32817740300028825"/><circle cx="805.8278294276932" cy="224.52544511217582" r="1.4" fill="#ffb347" opacity="0.20694845146167978"/><circle cx="829.0551767399498" cy="249.8357516658646" r="0.8" fill="#ffb347" opacity="0.2448222955810983"/><circle cx="787.4173342096418" cy="240.2818697420026" r="0.8" fill="#ffb347" opacity="0.40697789773933146"/><circle cx="827.118677093801" cy="227.5183603843728" r="0.8" fill="#ffb347" opacity="0.544330145130973"/><circle cx="807.0548357923125" cy="258.55232971096683" r="0.8" fill="#ffb347" opacity="0.5305980149364901"/><circle cx="789.6187379515045" cy="228.43648632912243" r="0.8" fill="#ffb347" opacity="0.3784067643277273"/><circle cx="833.2751652790605" cy="245.09534478082722" r="0.8" fill="#ffb347" opacity="0.2276803272484693"/><circle cx="787.3138459632085" cy="254.3675743530351" r="1.4" fill="#ffb347" opacity="0.21699589483880774"/><path d="M778.450030505606,140.94367181970318 Q901.5646403002926,143.85425516545553 1123.4717842778998,146.55701896618277" fill="none" stroke="#579bff" stroke-width="0.6" opacity="0.12"/><circle cx="951.4112283715076" cy="144.20219334300378" r="2" fill="#579bff" opacity="0.7603875471609678"/><circle cx="774.456851402427" cy="142.78022421810596" r="1.4" fill="#579bff" opacity="0.24377555084457292"/><circle cx="787.3827557974269" cy="138.61247915519638" r="0.8" fill="#579bff" opacity="0.2073936305606351"/><circle cx="779.2957185534309" cy="149.3379037366594" r="0.8" fill="#579bff" opacity="0.32970521032419337"/><circle cx="772.3848675227895" cy="133.1678698697028" r="0.8" fill="#579bff" opacity="0.498257587769382"/><circle cx="790.9762408756644" cy="141.69952758938769" r="0.8" fill="#579bff" opacity="0.5580844843922088"/><circle cx="762.7796649652778" cy="144.17863290351139" r="0.8" fill="#579bff" opacity="0.4541813273435162"/><circle cx="781.5555601523158" cy="128.33739161100158" r="0.8" fill="#579bff" opacity="0.28207620003991346"/><circle cx="785.6327409829529" cy="150.93866808198692" r="1.4" fill="#579bff" opacity="0.2000017628208734"/><circle cx="763.7302079651903" cy="136.1632961891891" r="0.8" fill="#579bff" opacity="0.2834168747599217"/><circle cx="798.7760336605928" cy="137.75585334598497" r="0.8" fill="#579bff" opacity="0.4556300666287954"/><circle cx="770.218470030195" cy="155.12319129589895" r="0.8" fill="#579bff" opacity="0.5583093240250767"/><circle cx="772.0916846020921" cy="128.9059800471509" r="0.8" fill="#579bff" opacity="0.497051811228281"/><circle cx="793.9235522218922" cy="150.24007045787374" r="0.8" fill="#579bff" opacity="0.32817740300028825"/><circle cx="754.8367882045123" cy="143.66816780990288" r="0.8" fill="#579bff" opacity="0.20694845146167978"/><circle cx="792.4153453310014" cy="127.32500202496023" r="1.4" fill="#579bff" opacity="0.2448222955810983"/><circle cx="782.4409809960025" cy="155.4179319804325" r="0.8" fill="#579bff" opacity="0.40697789773933146"/><circle cx="763.1943565145446" cy="127.60543586986996" r="0.8" fill="#579bff" opacity="0.544330145130973"/><circle cx="804.0574039865132" cy="139.527251226983" r="0.8" fill="#579bff" opacity="0.5305980149364901"/><circle cx="758.6819792426577" cy="152.4802921338801" r="0.8" fill="#579bff" opacity="0.3784067643277273"/><circle cx="778.2135271637612" cy="123.74172540644193" r="0.8" fill="#579bff" opacity="0.2276803272484693"/><circle cx="792.657134342755" cy="157.25069134184" r="0.8" fill="#579bff" opacity="0.21699589483880774"/><circle cx="752.0599776749821" cy="139.71957784472497" r="1.4" fill="#579bff" opacity="0.35617668498240085"/><path d="M877.1160717154871,62.46823105535951 Q888.6288464215592,181.34648741852905 1085.6505793302176,245.8006752458237" fill="none" stroke="#00f0ff" stroke-width="0.6" opacity="0.12"/><circle cx="988.2103203785423" cy="204.52692966811452" r="2" fill="#00f0ff" opacity="0.4890083735825259"/><circle cx="874.5014972320326" cy="62.34918406849731" r="1.4" fill="#00f0ff" opacity="0.2073936305606351"/><circle cx="888.0140977317166" cy="64.84690484466168" r="0.8" fill="#00f0ff" opacity="0.32970521032419337"/><circle cx="870.5839942987807" cy="67.73846955685985" r="0.8" fill="#00f0ff" opacity="0.498257587769382"/><circle cx="880.7174131369117" cy="53.33082156836496" r="0.8" fill="#00f0ff" opacity="0.5580844843922088"/><circle cx="883.2216821241539" cy="69.39310330866013" r="0.8" fill="#00f0ff" opacity="0.4541813273435162"/><circle cx="860.1129794731492" cy="57.47983653791438" r="0.8" fill="#00f0ff" opacity="0.28207620003991346"/><circle cx="889.7746388702469" cy="55.67093665326436" r="0.8" fill="#00f0ff" opacity="0.2000017628208734"/><circle cx="870.8854136973644" cy="72.72011143332469" r="1.4" fill="#00f0ff" opacity="0.2834168747599217"/><circle cx="872.5406971261355" cy="50.80288960668784" r="0.8" fill="#00f0ff" opacity="0.4556300666287954"/><circle cx="896.5804551679895" cy="69.62136659935274" r="0.8" fill="#00f0ff" opacity="0.5583093240250767"/><circle cx="859.1304321535213" cy="68.27878930541289" r="0.8" fill="#00f0ff" opacity="0.497051811228281"/><circle cx="886.62299595946" cy="52.03942833877681" r="0.8" fill="#00f0ff" opacity="0.32817740300028825"/><circle cx="878.872772319968" cy="78.31557065303332" r="0.8" fill="#00f0ff" opacity="0.20694845146167978"/><circle cx="857.4053442547624" cy="53.49833583092715" r="0.8" fill="#00f0ff" opacity="0.2448222955810983"/><circle cx="899.7633028916076" cy="59.63548199248802" r="1.4" fill="#00f0ff" opacity="0.40697789773933146"/><circle cx="863.8054663673722" cy="72.99486928665564" r="0.8" fill="#00f0ff" opacity="0.544330145130973"/><circle cx="878.8702795855945" cy="43.70520782383879" r="0.8" fill="#00f0ff" opacity="0.5305980149364901"/><circle cx="895.2453115239507" cy="73.40880363545008" r="0.8" fill="#00f0ff" opacity="0.3784067643277273"/><circle cx="850.7643712444373" cy="61.05454741423338" r="0.8" fill="#00f0ff" opacity="0.2276803272484693"/><circle cx="894.6401005725022" cy="51.83881467001326" r="0.8" fill="#00f0ff" opacity="0.21699589483880774"/><circle cx="871.4630439039852" cy="82.41816741637496" r="0.8" fill="#00f0ff" opacity="0.35617668498240085"/><circle cx="862.0710516392272" cy="48.90659529365164" r="1.4" fill="#00f0ff" opacity="0.5172605210863286"/><path d="M1030.6651974847998,64.9664055546708 Q932.1174081152687,208.40681146601463 945.6817213793397,287.9648770133708" fill="none" stroke="#a879ff" stroke-width="0.6" opacity="0.12"/><circle cx="944.0942053984543" cy="263.9302799107795" r="2" fill="#a879ff" opacity="0.15060407925650668"/><circle cx="1031.0151934185576" cy="64.17714464993045" r="1.4" fill="#a879ff" opacity="0.32970521032419337"/><circle cx="1038.1058168616623" cy="71.61334921404347" r="0.8" fill="#a879ff" opacity="0.498257587769382"/><circle cx="1022.1944323754036" cy="64.35539738841986" r="0.8" fill="#a879ff" opacity="0.5580844843922088"/><circle cx="1042.3966251807037" cy="59.73438302961737" r="0.8" fill="#a879ff" opacity="0.4541813273435162"/><circle cx="1025.975559180357" cy="72.96517343950651" r="0.8" fill="#a879ff" opacity="0.28207620003991346"/><circle cx="1021.1608345048624" cy="53.579516284451074" r="0.8" fill="#a879ff" opacity="0.2000017628208734"/><circle cx="1044.0264137513232" cy="67.0133212886348" r="0.8" fill="#a879ff" opacity="0.2834168747599217"/><circle cx="1014.8261022337383" cy="68.66174570676252" r="1.4" fill="#a879ff" opacity="0.4556300666287954"/><circle cx="1040.213202367421" cy="53.59828929541913" r="0.8" fill="#a879ff" opacity="0.5583093240250767"/><circle cx="1038.9319327806509" cy="78.89149144472275" r="0.8" fill="#a879ff" opacity="0.497051811228281"/><circle cx="1014.4602903084074" cy="60.04824873750551" r="0.8" fill="#a879ff" opacity="0.32817740300028825"/><circle cx="1049.5767813663015" cy="63.625260359823564" r="0.8" fill="#a879ff" opacity="0.20694845146167978"/><circle cx="1016.1519290777385" cy="78.48993805073479" r="0.8" fill="#a879ff" opacity="0.2448222955810983"/><circle cx="1025.6577251069418" cy="49.8085944626688" r="0.8" fill="#a879ff" opacity="0.40697789773933146"/><circle cx="1048.3078266996508" cy="74.00789773459188" r="1.4" fill="#a879ff" opacity="0.544330145130973"/><circle cx="1009.3459830099171" cy="64.05474557780876" r="0.8" fill="#a879ff" opacity="0.5305980149364901"/><circle cx="1049.8295958847186" cy="50.96539627823077" r="0.8" fill="#a879ff" opacity="0.3784067643277273"/><circle cx="1030.9209937935345" cy="80.76103886867404" r="0.8" fill="#a879ff" opacity="0.2276803272484693"/><circle cx="1012.9980236118158" cy="51.22418365795568" r="0.8" fill="#a879ff" opacity="0.21699589483880774"/><circle cx="1053.8276162175587" cy="67.8345531024871" r="0.8" fill="#a879ff" opacity="0.35617668498240085"/><circle cx="1007.4422418722933" cy="77.48163603596853" r="0.8" fill="#a879ff" opacity="0.5172605210863286"/><circle cx="1036.1677817711802" cy="48.50602149675573" r="1.4" fill="#a879ff" opacity="0.5521476671128105"/>
  <circle cx="950" cy="170" r="167" stroke="url(#neon)" stroke-opacity="0.25" stroke-dasharray="2 13" fill="none"/>
  <path d="M1092.76,109.64 L1093.93,113.17 L1094.52,116.93 L1094.54,120.89 L1093.99,125.05 L1092.88,129.39 L1091.20,133.88 L1088.96,138.52 L1086.17,143.29 L1082.85,148.15 L1079.00,153.11 L1074.65,158.13 L1069.80,163.20 L1064.48,168.29 L1058.70,173.40 L1052.50,178.49 L1045.90,183.54 L1038.91,188.54 L1031.58,193.47 L1023.92,198.31 L1015.97,203.03 L1007.76,207.62 L999.32,212.07 L990.69,216.35 L981.89,220.45 L972.98,224.34 L963.97,228.03 L954.90,231.48 L945.82,234.69 L936.75,237.65 L927.73,240.34 L918.81,242.75 L910.00,244.87 L901.36,246.70 L892.90,248.23 L884.67,249.44 L876.70,250.35 L869.02,250.93 L861.66,251.20 L854.64,251.15 L848.01,250.77 L841.77,250.08 L835.96,249.07 L830.61,247.75 L825.72,246.13 L821.32,244.20 L817.43,241.98 L814.07,239.47 L811.24,236.69 L808.96,233.65 L807.24,230.36 L806.07,226.83 L805.48,223.07 L805.46,219.11 L806.01,214.95 L807.12,210.61 L808.80,206.12 L811.04,201.48 L813.83,196.71 L817.15,191.85 L821.00,186.89 L825.35,181.87 L830.20,176.80 L835.52,171.71 L841.30,166.60 L847.50,161.51 L854.10,156.46 L861.09,151.46 L868.42,146.53 L876.08,141.69 L884.03,136.97 L892.24,132.38 L900.68,127.93 L909.31,123.65 L918.11,119.55 L927.02,115.66 L936.03,111.97 L945.10,108.52 L954.18,105.31 L963.25,102.35 L972.27,99.66 L981.19,97.25 L990.00,95.13 L998.64,93.30 L1007.10,91.77 L1015.33,90.56 L1023.30,89.65 L1030.98,89.07 L1038.34,88.80 L1045.36,88.85 L1051.99,89.23 L1058.23,89.92 L1064.04,90.93 L1069.39,92.25 L1074.28,93.87 L1078.68,95.80 L1082.57,98.02 L1085.93,100.53 L1088.76,103.31 L1091.04,106.35 L1092.76,109.64" fill="none" stroke="#00f0ff" stroke-width="5" opacity="0.04"/>
      <path d="M1092.76,109.64 L1093.93,113.17 L1094.52,116.93 L1094.54,120.89 L1093.99,125.05 L1092.88,129.39 L1091.20,133.88 L1088.96,138.52 L1086.17,143.29 L1082.85,148.15 L1079.00,153.11 L1074.65,158.13 L1069.80,163.20 L1064.48,168.29 L1058.70,173.40 L1052.50,178.49 L1045.90,183.54 L1038.91,188.54 L1031.58,193.47 L1023.92,198.31 L1015.97,203.03 L1007.76,207.62 L999.32,212.07 L990.69,216.35 L981.89,220.45 L972.98,224.34 L963.97,228.03 L954.90,231.48 L945.82,234.69 L936.75,237.65 L927.73,240.34 L918.81,242.75 L910.00,244.87 L901.36,246.70 L892.90,248.23 L884.67,249.44 L876.70,250.35 L869.02,250.93 L861.66,251.20 L854.64,251.15 L848.01,250.77 L841.77,250.08 L835.96,249.07 L830.61,247.75 L825.72,246.13 L821.32,244.20 L817.43,241.98 L814.07,239.47 L811.24,236.69 L808.96,233.65 L807.24,230.36 L806.07,226.83 L805.48,223.07 L805.46,219.11 L806.01,214.95 L807.12,210.61 L808.80,206.12 L811.04,201.48 L813.83,196.71 L817.15,191.85 L821.00,186.89 L825.35,181.87 L830.20,176.80 L835.52,171.71 L841.30,166.60 L847.50,161.51 L854.10,156.46 L861.09,151.46 L868.42,146.53 L876.08,141.69 L884.03,136.97 L892.24,132.38 L900.68,127.93 L909.31,123.65 L918.11,119.55 L927.02,115.66 L936.03,111.97 L945.10,108.52 L954.18,105.31 L963.25,102.35 L972.27,99.66 L981.19,97.25 L990.00,95.13 L998.64,93.30 L1007.10,91.77 L1015.33,90.56 L1023.30,89.65 L1030.98,89.07 L1038.34,88.80 L1045.36,88.85 L1051.99,89.23 L1058.23,89.92 L1064.04,90.93 L1069.39,92.25 L1074.28,93.87 L1078.68,95.80 L1082.57,98.02 L1085.93,100.53 L1088.76,103.31 L1091.04,106.35 L1092.76,109.64" fill="none" stroke="#00f0ff" stroke-width="1" opacity="0.37"/><circle cx="1071.461044108819" cy="92.87876583724805" r="1.6" fill="#00f0ff" opacity="0.050000000000000044"/><circle cx="1073.2334593447092" cy="93.48493225096637" r="1.6" fill="#00f0ff" opacity="0.09999999999999999"/><circle cx="1074.9406869543702" cy="94.13157335121761" r="1.6" fill="#00f0ff" opacity="0.15000000000000005"/><circle cx="1076.5818238542083" cy="94.81834707993926" r="1.6" fill="#00f0ff" opacity="0.19999999999999998"/><circle cx="1078.156001921074" cy="95.54489014984412" r="1.6" fill="#00f0ff" opacity="0.25"/><circle cx="1079.6623884514793" cy="96.31081823659095" r="1.6" fill="#00f0ff" opacity="0.3"/><circle cx="1081.1001866020783" cy="97.11572618208307" r="1.6" fill="#00f0ff" opacity="0.35000000000000003"/><circle cx="1082.4686358111783" cy="97.9591882087875" r="1.6" fill="#00f0ff" opacity="0.39999999999999997"/><circle cx="1083.767012201059" cy="98.84075814496134" r="1.6" fill="#00f0ff" opacity="0.45"/><circle cx="1084.9946289608886" cy="99.75996966066634" r="1.6" fill="#00f0ff" opacity="0.5"/><circle cx="1086.150836710028" cy="100.71633651444637" r="1.6" fill="#00f0ff" opacity="0.55"/><circle cx="1087.235023841541" cy="101.70935281053792" r="1.6" fill="#00f0ff" opacity="0.6"/><circle cx="1088.2466168457174" cy="102.7384932664772" r="1.6" fill="#00f0ff" opacity="0.65"/><circle cx="1089.1850806134482" cy="103.80321349096225" r="1.6" fill="#00f0ff" opacity="0.7000000000000001"/><circle cx="1090.049918719285" cy="104.90295027182323" r="1.6" fill="#00f0ff" opacity="0.75"/><circle cx="1090.8406736840375" cy="106.03712187394852" r="1.6" fill="#00f0ff" opacity="0.7999999999999999"/><circle cx="1091.5569272167695" cy="107.20512834700918" r="1.6" fill="#00f0ff" opacity="0.85"/><circle cx="1092.1983004360648" cy="108.40635184281844" r="1.6" fill="#00f0ff" opacity="0.9"/><circle cx="1092.7644540704473" cy="109.64015694215917" r="3.8" fill="#00f0ff" opacity="0.95"/><circle cx="1092.7644540704473" cy="109.64015694215917" r="9" fill="#00f0ff" opacity="0.1"/><path d="M1090.89,234.61 L1089.07,237.85 L1086.70,240.83 L1083.79,243.52 L1080.35,245.92 L1076.39,248.02 L1071.94,249.82 L1067.01,251.30 L1061.61,252.46 L1055.78,253.29 L1049.53,253.80 L1042.88,253.97 L1035.87,253.81 L1028.52,253.33 L1020.86,252.51 L1012.91,251.37 L1004.73,249.90 L996.32,248.12 L987.73,246.04 L979.00,243.65 L970.15,240.97 L961.22,238.01 L952.24,234.79 L943.26,231.30 L934.30,227.58 L925.40,223.63 L916.61,219.47 L907.94,215.11 L899.44,210.57 L891.14,205.88 L883.07,201.04 L875.27,196.08 L867.76,191.01 L860.57,185.87 L853.74,180.66 L847.29,175.41 L841.24,170.13 L835.63,164.86 L830.46,159.61 L825.76,154.40 L821.56,149.25 L817.86,144.18 L814.69,139.21 L812.05,134.37 L809.95,129.66 L808.41,125.12 L807.42,120.75 L807.00,116.58 L807.14,112.62 L807.84,108.88 L809.11,105.39 L810.93,102.15 L813.30,99.17 L816.21,96.48 L819.65,94.08 L823.61,91.98 L828.06,90.18 L832.99,88.70 L838.39,87.54 L844.22,86.71 L850.47,86.20 L857.12,86.03 L864.13,86.19 L871.48,86.67 L879.14,87.49 L887.09,88.63 L895.27,90.10 L903.68,91.88 L912.27,93.96 L921.00,96.35 L929.85,99.03 L938.78,101.99 L947.76,105.21 L956.74,108.70 L965.70,112.42 L974.60,116.37 L983.39,120.53 L992.06,124.89 L1000.56,129.43 L1008.86,134.12 L1016.93,138.96 L1024.73,143.92 L1032.24,148.99 L1039.43,154.13 L1046.26,159.34 L1052.71,164.59 L1058.76,169.87 L1064.37,175.14 L1069.54,180.39 L1074.24,185.60 L1078.44,190.75 L1082.14,195.82 L1085.31,200.79 L1087.95,205.63 L1090.05,210.34 L1091.59,214.88 L1092.58,219.25 L1093.00,223.42 L1092.86,227.38 L1092.16,231.12 L1090.89,234.61" fill="none" stroke="#a879ff" stroke-width="5" opacity="0.04"/>
      <path d="M1090.89,234.61 L1089.07,237.85 L1086.70,240.83 L1083.79,243.52 L1080.35,245.92 L1076.39,248.02 L1071.94,249.82 L1067.01,251.30 L1061.61,252.46 L1055.78,253.29 L1049.53,253.80 L1042.88,253.97 L1035.87,253.81 L1028.52,253.33 L1020.86,252.51 L1012.91,251.37 L1004.73,249.90 L996.32,248.12 L987.73,246.04 L979.00,243.65 L970.15,240.97 L961.22,238.01 L952.24,234.79 L943.26,231.30 L934.30,227.58 L925.40,223.63 L916.61,219.47 L907.94,215.11 L899.44,210.57 L891.14,205.88 L883.07,201.04 L875.27,196.08 L867.76,191.01 L860.57,185.87 L853.74,180.66 L847.29,175.41 L841.24,170.13 L835.63,164.86 L830.46,159.61 L825.76,154.40 L821.56,149.25 L817.86,144.18 L814.69,139.21 L812.05,134.37 L809.95,129.66 L808.41,125.12 L807.42,120.75 L807.00,116.58 L807.14,112.62 L807.84,108.88 L809.11,105.39 L810.93,102.15 L813.30,99.17 L816.21,96.48 L819.65,94.08 L823.61,91.98 L828.06,90.18 L832.99,88.70 L838.39,87.54 L844.22,86.71 L850.47,86.20 L857.12,86.03 L864.13,86.19 L871.48,86.67 L879.14,87.49 L887.09,88.63 L895.27,90.10 L903.68,91.88 L912.27,93.96 L921.00,96.35 L929.85,99.03 L938.78,101.99 L947.76,105.21 L956.74,108.70 L965.70,112.42 L974.60,116.37 L983.39,120.53 L992.06,124.89 L1000.56,129.43 L1008.86,134.12 L1016.93,138.96 L1024.73,143.92 L1032.24,148.99 L1039.43,154.13 L1046.26,159.34 L1052.71,164.59 L1058.76,169.87 L1064.37,175.14 L1069.54,180.39 L1074.24,185.60 L1078.44,190.75 L1082.14,195.82 L1085.31,200.79 L1087.95,205.63 L1090.05,210.34 L1091.59,214.88 L1092.58,219.25 L1093.00,223.42 L1092.86,227.38 L1092.16,231.12 L1090.89,234.61" fill="none" stroke="#a879ff" stroke-width="1" opacity="0.37"/><circle cx="965.9799993272735" cy="239.62309645607093" r="1.6" fill="#a879ff" opacity="0.050000000000000044"/><circle cx="962.7071891031951" cy="238.52505348376536" r="1.6" fill="#a879ff" opacity="0.09999999999999999"/><circle cx="959.4276570724086" cy="237.39076235614868" r="1.6" fill="#a879ff" opacity="0.15000000000000005"/><circle cx="956.1431380308807" cy="236.2208230867761" r="1.6" fill="#a879ff" opacity="0.19999999999999998"/><circle cx="952.8553694125906" cy="235.01585454623847" r="1.6" fill="#a879ff" opacity="0.25"/><circle cx="949.5660903704672" cy="233.7764941347943" r="1.6" fill="#a879ff" opacity="0.3"/><circle cx="946.2770408564194" cy="232.50339744519977" r="1.6" fill="#a879ff" opacity="0.35000000000000003"/><circle cx="942.9899607009402" cy="231.19723791591542" r="1.6" fill="#a879ff" opacity="0.39999999999999997"/><circle cx="939.7065886927785" cy="229.85870647487312" r="1.6" fill="#a879ff" opacity="0.45"/><circle cx="936.4286616591594" cy="228.48851117399101" r="1.6" fill="#a879ff" opacity="0.5"/><circle cx="933.1579135470432" cy="227.08737681463074" r="1.6" fill="#a879ff" opacity="0.55"/><circle cx="929.8960745059089" cy="225.65604456419445" r="1.6" fill="#a879ff" opacity="0.6"/><circle cx="926.644869972544" cy="224.19527156406446" r="1.6" fill="#a879ff" opacity="0.65"/><circle cx="923.4060197583296" cy="222.70583052909296" r="1.6" fill="#a879ff" opacity="0.7000000000000001"/><circle cx="920.1812371395002" cy="221.18850933885432" r="1.6" fill="#a879ff" opacity="0.75"/><circle cx="916.9722279508602" cy="219.64411062087467" r="1.6" fill="#a879ff" opacity="0.7999999999999999"/><circle cx="913.7806896834375" cy="218.07345132606096" r="1.6" fill="#a879ff" opacity="0.85"/><circle cx="910.6083105865496" cy="216.47736229655285" r="1.6" fill="#a879ff" opacity="0.9"/><circle cx="907.4567687747602" cy="214.85668782622673" r="3.8" fill="#a879ff" opacity="0.95"/><circle cx="907.4567687747602" cy="214.85668782622673" r="9" fill="#a879ff" opacity="0.1"/><path d="M997.40,317.57 L993.78,318.42 L989.99,318.67 L986.04,318.34 L981.94,317.42 L977.72,315.93 L973.39,313.85 L968.97,311.21 L964.48,308.01 L959.92,304.27 L955.33,300.00 L950.72,295.21 L946.10,289.93 L941.50,284.17 L936.93,277.97 L932.42,271.34 L927.97,264.31 L923.61,256.91 L919.36,249.16 L915.22,241.10 L911.22,232.76 L907.38,224.18 L903.70,215.38 L900.21,206.40 L896.91,197.27 L893.83,188.04 L890.96,178.74 L888.33,169.40 L885.94,160.07 L883.80,150.78 L881.93,141.56 L880.32,132.45 L878.99,123.49 L877.94,114.72 L877.17,106.16 L876.69,97.86 L876.50,89.84 L876.60,82.13 L876.99,74.77 L877.67,67.79 L878.63,61.22 L879.88,55.07 L881.40,49.37 L883.19,44.15 L885.25,39.43 L887.56,35.22 L890.12,31.55 L892.91,28.42 L895.93,25.85 L899.16,23.85 L902.60,22.43 L906.22,21.58 L910.01,21.33 L913.96,21.66 L918.06,22.58 L922.28,24.07 L926.61,26.15 L931.03,28.79 L935.52,31.99 L940.08,35.73 L944.67,40.00 L949.28,44.79 L953.90,50.07 L958.50,55.83 L963.07,62.03 L967.58,68.66 L972.03,75.69 L976.39,83.09 L980.64,90.84 L984.78,98.90 L988.78,107.24 L992.62,115.82 L996.30,124.62 L999.79,133.60 L1003.09,142.73 L1006.17,151.96 L1009.04,161.26 L1011.67,170.60 L1014.06,179.93 L1016.20,189.22 L1018.07,198.44 L1019.68,207.55 L1021.01,216.51 L1022.06,225.28 L1022.83,233.84 L1023.31,242.14 L1023.50,250.16 L1023.40,257.87 L1023.01,265.23 L1022.33,272.21 L1021.37,278.78 L1020.12,284.93 L1018.60,290.63 L1016.81,295.85 L1014.75,300.57 L1012.44,304.78 L1009.88,308.45 L1007.09,311.58 L1004.07,314.15 L1000.84,316.15 L997.40,317.57" fill="none" stroke="#ff4da6" stroke-width="5" opacity="0.04"/>
      <path d="M997.40,317.57 L993.78,318.42 L989.99,318.67 L986.04,318.34 L981.94,317.42 L977.72,315.93 L973.39,313.85 L968.97,311.21 L964.48,308.01 L959.92,304.27 L955.33,300.00 L950.72,295.21 L946.10,289.93 L941.50,284.17 L936.93,277.97 L932.42,271.34 L927.97,264.31 L923.61,256.91 L919.36,249.16 L915.22,241.10 L911.22,232.76 L907.38,224.18 L903.70,215.38 L900.21,206.40 L896.91,197.27 L893.83,188.04 L890.96,178.74 L888.33,169.40 L885.94,160.07 L883.80,150.78 L881.93,141.56 L880.32,132.45 L878.99,123.49 L877.94,114.72 L877.17,106.16 L876.69,97.86 L876.50,89.84 L876.60,82.13 L876.99,74.77 L877.67,67.79 L878.63,61.22 L879.88,55.07 L881.40,49.37 L883.19,44.15 L885.25,39.43 L887.56,35.22 L890.12,31.55 L892.91,28.42 L895.93,25.85 L899.16,23.85 L902.60,22.43 L906.22,21.58 L910.01,21.33 L913.96,21.66 L918.06,22.58 L922.28,24.07 L926.61,26.15 L931.03,28.79 L935.52,31.99 L940.08,35.73 L944.67,40.00 L949.28,44.79 L953.90,50.07 L958.50,55.83 L963.07,62.03 L967.58,68.66 L972.03,75.69 L976.39,83.09 L980.64,90.84 L984.78,98.90 L988.78,107.24 L992.62,115.82 L996.30,124.62 L999.79,133.60 L1003.09,142.73 L1006.17,151.96 L1009.04,161.26 L1011.67,170.60 L1014.06,179.93 L1016.20,189.22 L1018.07,198.44 L1019.68,207.55 L1021.01,216.51 L1022.06,225.28 L1022.83,233.84 L1023.31,242.14 L1023.50,250.16 L1023.40,257.87 L1023.01,265.23 L1022.33,272.21 L1021.37,278.78 L1020.12,284.93 L1018.60,290.63 L1016.81,295.85 L1014.75,300.57 L1012.44,304.78 L1009.88,308.45 L1007.09,311.58 L1004.07,314.15 L1000.84,316.15 L997.40,317.57" fill="none" stroke="#ff4da6" stroke-width="1" opacity="0.37"/><circle cx="894.4660622827483" cy="27.004786490738894" r="1.6" fill="#ff4da6" opacity="0.050000000000000044"/><circle cx="895.5880826482884" cy="26.106724579904487" r="1.6" fill="#ff4da6" opacity="0.09999999999999999"/><circle cx="896.7388856492396" cy="25.284778856223323" r="1.6" fill="#ff4da6" opacity="0.15000000000000005"/><circle cx="897.9178625376504" cy="24.53938410981574" r="1.6" fill="#ff4da6" opacity="0.19999999999999998"/><circle cx="899.1243896622406" cy="23.87093463712016" r="1.6" fill="#ff4da6" opacity="0.25"/><circle cx="900.357828798297" cy="23.279784032319665" r="1.6" fill="#ff4da6" opacity="0.3"/><circle cx="901.6175274852798" cy="22.766245000298717" r="1.6" fill="#ff4da6" opacity="0.35000000000000003"/><circle cx="902.9028193719594" cy="22.33058919122972" r="1.6" fill="#ff4da6" opacity="0.39999999999999997"/><circle cx="904.2130245689006" cy="21.973047056876354" r="1.6" fill="#ff4da6" opacity="0.45"/><circle cx="905.5474500081076" cy="21.693807728689883" r="1.6" fill="#ff4da6" opacity="0.5"/><circle cx="906.9053898096413" cy="21.49301891776312" r="1.6" fill="#ff4da6" opacity="0.55"/><circle cx="908.2861256550136" cy="21.37078683669479" r="1.6" fill="#ff4da6" opacity="0.6"/><circle cx="909.6889271671605" cy="21.327176143405314" r="1.6" fill="#ff4da6" opacity="0.65"/><circle cx="911.113052296795" cy="21.36220990693448" r="1.6" fill="#ff4da6" opacity="0.7000000000000001"/><circle cx="912.5577477149335" cy="21.47586959523832" r="1.6" fill="#ff4da6" opacity="0.75"/><circle cx="914.0222492113899" cy="21.668095084992306" r="1.6" fill="#ff4da6" opacity="0.7999999999999999"/><circle cx="915.5057820990241" cy="21.938784693394915" r="1.6" fill="#ff4da6" opacity="0.85"/><circle cx="917.007561623534" cy="22.2877952319557" r="1.6" fill="#ff4da6" opacity="0.9"/><circle cx="918.5267933785723" cy="22.71494208223864" r="3.8" fill="#ff4da6" opacity="0.95"/><circle cx="918.5267933785723" cy="22.71494208223864" r="9" fill="#ff4da6" opacity="0.1"/><path d="M873.09,304.57 L870.03,302.47 L867.28,299.84 L864.85,296.70 L862.77,293.06 L861.03,288.94 L859.63,284.35 L858.60,279.30 L857.93,273.82 L857.62,267.94 L857.67,261.66 L858.09,255.03 L858.87,248.06 L860.01,240.78 L861.51,233.22 L863.35,225.42 L865.54,217.39 L868.06,209.18 L870.90,200.81 L874.06,192.32 L877.52,183.74 L881.26,175.11 L885.27,166.46 L889.54,157.82 L894.05,149.23 L898.78,140.72 L903.71,132.33 L908.82,124.09 L914.09,116.03 L919.51,108.18 L925.05,100.57 L930.68,93.24 L936.40,86.21 L942.16,79.51 L947.96,73.17 L953.76,67.22 L959.55,61.66 L965.31,56.54 L971.00,51.86 L976.61,47.65 L982.11,43.92 L987.49,40.69 L992.72,37.97 L997.78,35.77 L1002.65,34.10 L1007.32,32.97 L1011.75,32.37 L1015.95,32.32 L1019.88,32.82 L1023.54,33.85 L1026.91,35.43 L1029.97,37.53 L1032.72,40.16 L1035.15,43.30 L1037.23,46.94 L1038.97,51.06 L1040.37,55.65 L1041.40,60.70 L1042.07,66.18 L1042.38,72.06 L1042.33,78.34 L1041.91,84.97 L1041.13,91.94 L1039.99,99.22 L1038.49,106.78 L1036.65,114.58 L1034.46,122.61 L1031.94,130.82 L1029.10,139.19 L1025.94,147.68 L1022.48,156.26 L1018.74,164.89 L1014.73,173.54 L1010.46,182.18 L1005.95,190.77 L1001.22,199.28 L996.29,207.67 L991.18,215.91 L985.91,223.97 L980.49,231.82 L974.95,239.43 L969.32,246.76 L963.60,253.79 L957.84,260.49 L952.04,266.83 L946.24,272.78 L940.45,278.34 L934.69,283.46 L929.00,288.14 L923.39,292.35 L917.89,296.08 L912.51,299.31 L907.28,302.03 L902.22,304.23 L897.35,305.90 L892.68,307.03 L888.25,307.63 L884.05,307.68 L880.12,307.18 L876.46,306.15 L873.09,304.57" fill="none" stroke="#ffb347" stroke-width="5" opacity="0.04"/>
      <path d="M873.09,304.57 L870.03,302.47 L867.28,299.84 L864.85,296.70 L862.77,293.06 L861.03,288.94 L859.63,284.35 L858.60,279.30 L857.93,273.82 L857.62,267.94 L857.67,261.66 L858.09,255.03 L858.87,248.06 L860.01,240.78 L861.51,233.22 L863.35,225.42 L865.54,217.39 L868.06,209.18 L870.90,200.81 L874.06,192.32 L877.52,183.74 L881.26,175.11 L885.27,166.46 L889.54,157.82 L894.05,149.23 L898.78,140.72 L903.71,132.33 L908.82,124.09 L914.09,116.03 L919.51,108.18 L925.05,100.57 L930.68,93.24 L936.40,86.21 L942.16,79.51 L947.96,73.17 L953.76,67.22 L959.55,61.66 L965.31,56.54 L971.00,51.86 L976.61,47.65 L982.11,43.92 L987.49,40.69 L992.72,37.97 L997.78,35.77 L1002.65,34.10 L1007.32,32.97 L1011.75,32.37 L1015.95,32.32 L1019.88,32.82 L1023.54,33.85 L1026.91,35.43 L1029.97,37.53 L1032.72,40.16 L1035.15,43.30 L1037.23,46.94 L1038.97,51.06 L1040.37,55.65 L1041.40,60.70 L1042.07,66.18 L1042.38,72.06 L1042.33,78.34 L1041.91,84.97 L1041.13,91.94 L1039.99,99.22 L1038.49,106.78 L1036.65,114.58 L1034.46,122.61 L1031.94,130.82 L1029.10,139.19 L1025.94,147.68 L1022.48,156.26 L1018.74,164.89 L1014.73,173.54 L1010.46,182.18 L1005.95,190.77 L1001.22,199.28 L996.29,207.67 L991.18,215.91 L985.91,223.97 L980.49,231.82 L974.95,239.43 L969.32,246.76 L963.60,253.79 L957.84,260.49 L952.04,266.83 L946.24,272.78 L940.45,278.34 L934.69,283.46 L929.00,288.14 L923.39,292.35 L917.89,296.08 L912.51,299.31 L907.28,302.03 L902.22,304.23 L897.35,305.90 L892.68,307.03 L888.25,307.63 L884.05,307.68 L880.12,307.18 L876.46,306.15 L873.09,304.57" fill="none" stroke="#ffb347" stroke-width="1" opacity="0.37"/><circle cx="1003.2361475593711" cy="195.71411417801093" r="1.6" fill="#ffb347" opacity="0.050000000000000044"/><circle cx="1001.4850098085203" cy="198.81891246762277" r="1.6" fill="#ffb347" opacity="0.09999999999999999"/><circle cx="999.7066376880945" cy="201.9084662245868" r="1.6" fill="#ffb347" opacity="0.15000000000000005"/><circle cx="997.901971915474" cy="204.98114114701312" r="1.6" fill="#ffb347" opacity="0.19999999999999998"/><circle cx="996.0719671167684" cy="208.0353118615213" r="1.6" fill="#ffb347" opacity="0.25"/><circle cx="994.2175913218414" cy="211.06936278302572" r="1.6" fill="#ffb347" opacity="0.3"/><circle cx="992.3398254522447" cy="214.08168896934214" r="1.6" fill="#ffb347" opacity="0.35000000000000003"/><circle cx="990.4396628023347" cy="217.07069697016416" r="1.6" fill="#ffb347" opacity="0.39999999999999997"/><circle cx="988.518108513842" cy="220.03480566996222" r="1.6" fill="#ffb347" opacity="0.45"/><circle cx="986.576179044175" cy="222.97244712435622" r="1.6" fill="#ffb347" opacity="0.5"/><circle cx="984.6149016287383" cy="225.88206738952144" r="1.6" fill="#ffb347" opacity="0.55"/><circle cx="982.635313737548" cy="228.7621273441892" r="1.6" fill="#ffb347" opacity="0.6"/><circle cx="980.6384625264353" cy="231.6111035038053" r="1.6" fill="#ffb347" opacity="0.65"/><circle cx="978.6254042831254" cy="234.42748882641865" r="1.6" fill="#ffb347" opacity="0.7000000000000001"/><circle cx="976.5972038684843" cy="237.20979350987082" r="1.6" fill="#ffb347" opacity="0.75"/><circle cx="974.5549341532351" cy="239.95654577986653" r="1.6" fill="#ffb347" opacity="0.7999999999999999"/><circle cx="972.4996754504318" cy="242.6662926685084" r="1.6" fill="#ffb347" opacity="0.85"/><circle cx="970.4325149440003" cy="245.33760078288282" r="1.6" fill="#ffb347" opacity="0.9"/><circle cx="968.354546113643" cy="247.96905706329116" r="3.8" fill="#ffb347" opacity="0.95"/><circle cx="968.354546113643" cy="247.96905706329116" r="9" fill="#ffb347" opacity="0.1"/><path d="M950.00,88.00 L1022.48,128.15 L1023.44,212.40 L950.00,254.92 L877.23,212.01 L878.62,128.79 L950.00,88.00" stroke="url(#neon)" stroke-width="1" opacity="0.4" fill="none"/><path d="M950,170 L950,88" stroke="#00f0ff" opacity="0.16"/>
      <circle cx="950" cy="88" r="14" fill="#00f0ff" opacity="0.04675"/>
      <circle cx="950" cy="88" r="8" fill="#101027" stroke="#00f0ff" stroke-opacity="0.85"/>
      <circle cx="950" cy="88" r="2.5" fill="#00f0ff" opacity="0.85"/><path d="M950,170 L1022.4810672883713,128.15303628990745" stroke="#a879ff" opacity="0.16"/>
      <circle cx="1022.4810672883713" cy="128.15303628990745" r="14" fill="#a879ff" opacity="0.04042915670568692"/>
      <circle cx="1022.4810672883713" cy="128.15303628990745" r="8" fill="#101027" stroke="#a879ff" stroke-opacity="0.7350755764670349"/>
      <circle cx="1022.4810672883713" cy="128.15303628990745" r="2.5" fill="#a879ff" opacity="0.7350755764670349"/><path d="M950,170 L1023.4355916876269,212.39805862895082" stroke="#ff4da6" opacity="0.16"/>
      <circle cx="1023.4355916876269" cy="212.39805862895082" r="14" fill="#ff4da6" opacity="0.027277980997476792"/>
      <circle cx="1023.4355916876269" cy="212.39805862895082" r="8" fill="#101027" stroke="#ff4da6" stroke-opacity="0.4959632908632144"/>
      <circle cx="1023.4355916876269" cy="212.39805862895082" r="2.5" fill="#ff4da6" opacity="0.4959632908632144"/><path d="M950,170 L950,254.9215428926346" stroke="#ffb347" opacity="0.16"/>
      <circle cx="950" cy="254.9215428926346" r="14" fill="#ffb347" opacity="0.019387603171743876"/>
      <circle cx="950" cy="254.9215428926346" r="8" fill="#101027" stroke="#ffb347" stroke-opacity="0.3525018758498886"/>
      <circle cx="950" cy="254.9215428926346" r="2.5" fill="#ffb347" opacity="0.3525018758498886"/><path d="M950,170 L877.231012068641,212.01319477082677" stroke="#579bff" opacity="0.16"/>
      <circle cx="877.231012068641" cy="212.01319477082677" r="14" fill="#579bff" opacity="0.024012400213125337"/>
      <circle cx="877.231012068641" cy="212.01319477082677" r="8" fill="#101027" stroke="#579bff" stroke-opacity="0.436589094784097"/>
      <circle cx="877.231012068641" cy="212.01319477082677" r="2.5" fill="#579bff" opacity="0.436589094784097"/><path d="M950,170 L878.6192763537897,128.7883199879102" stroke="#00f0ff" opacity="0.16"/>
      <circle cx="878.6192763537897" cy="128.7883199879102" r="14" fill="#00f0ff" opacity="0.036900355050119356"/>
      <circle cx="878.6192763537897" cy="128.7883199879102" r="8" fill="#101027" stroke="#00f0ff" stroke-opacity="0.6709155463658065"/>
      <circle cx="878.6192763537897" cy="128.7883199879102" r="2.5" fill="#00f0ff" opacity="0.6709155463658065"/>
  <circle cx="950" cy="170" r="50" fill="#100e25" stroke="url(#neon)" stroke-opacity="0.8"/>
  <circle cx="950" cy="170" r="58" fill="none" stroke="#ff4da6" stroke-opacity="0.25"/>
  <path d="M950 140 L974 151 V170 Q974 187 950 200 Q926 187 926 170 V151Z" fill="#00f0ff" fill-opacity="0.07" stroke="url(#neon)" stroke-width="2"/>
  <path d="M939 169 L947 177 L962 160" fill="none" stroke="#c0faff" stroke-width="2.5" stroke-linecap="round" stroke-linejoin="round"/>
  <g font-family="Consolas, Liberation Mono, monospace">
    <path d="M54 42H82" stroke="url(#neon)" stroke-width="3"/>
    <text x="96" y="48" fill="#98eaff" font-size="17">Krico / Kirito14IT</text>
    <text x="50.7" y="144" fill="#00f0ff" opacity="0.25" font-size="68" font-weight="700" letter-spacing="-3">Zhihua Wang</text>
    <text x="53.3" y="144" fill="#ff4da6" opacity="0.25" font-size="68" font-weight="700" letter-spacing="-3">Zhihua Wang</text>
    <text x="52" y="144" fill="#f4f1ff" font-size="68" font-weight="700" letter-spacing="-3">Zhihua Wang</text>
    <text x="56" y="188" fill="#b6bbda" font-size="20">AI Safety / LLM Agents / Software Security</text>
    <rect x="56" y="224" width="235" height="32" rx="16" fill="#a879ff" fill-opacity="0.11" stroke="url(#neon)" stroke-opacity="0.65"/>
    <circle cx="73" cy="240" r="3" fill="#00f0ff"/>
    <text x="85" y="245" fill="#d6caff" font-size="14">Fudan University / 2027</text>
    <path d="M56 278H370" stroke="url(#neon)" stroke-opacity="0.45"/>
  </g>
  <path d="M0.00,308.80 L10.00,309.33 L20.00,309.84 L30.00,310.32 L40.00,310.77 L50.00,311.19 L60.00,311.58 L70.00,311.94 L80.00,312.27 L90.00,312.57 L100.00,312.85 L110.00,313.09 L120.00,313.30 L130.00,313.48 L140.00,313.64 L150.00,313.76 L160.00,313.86 L170.00,313.93 L180.00,313.98 L190.00,314.00 L200.00,314.00 L210.00,313.97 L220.00,313.93 L230.00,313.86 L240.00,313.78 L250.00,313.68 L260.00,313.56 L270.00,313.43 L280.00,313.28 L290.00,313.13 L300.00,312.96 L310.00,312.78 L320.00,312.59 L330.00,312.40 L340.00,312.20 L350.00,312.00 L360.00,311.79 L370.00,311.59 L380.00,311.37 L390.00,311.16 L400.00,310.95 L410.00,310.74 L420.00,310.53 L430.00,310.33 L440.00,310.12 L450.00,309.92 L460.00,309.72 L470.00,309.53 L480.00,309.34 L490.00,309.15 L500.00,308.97 L510.00,308.79 L520.00,308.61 L530.00,308.44 L540.00,308.27 L550.00,308.10 L560.00,307.93 L570.00,307.76 L580.00,307.60 L590.00,307.43 L600.00,307.26 L610.00,307.09 L620.00,306.92 L630.00,306.75 L640.00,306.57 L650.00,306.39 L660.00,306.20 L670.00,306.00 L680.00,305.80 L690.00,305.59 L700.00,305.37 L710.00,305.15 L720.00,304.91 L730.00,304.67 L740.00,304.41 L750.00,304.14 L760.00,303.86 L770.00,303.57 L780.00,303.27 L790.00,302.96 L800.00,302.64 L810.00,302.30 L820.00,301.96 L830.00,301.60 L840.00,301.23 L850.00,300.85 L860.00,300.47 L870.00,300.07 L880.00,299.67 L890.00,299.26 L900.00,298.85 L910.00,298.43 L920.00,298.01 L930.00,297.59 L940.00,297.16 L950.00,296.74 L960.00,296.32 L970.00,295.90 L980.00,295.49 L990.00,295.09 L1000.00,294.69 L1010.00,294.31 L1020.00,293.94 L1030.00,293.59 L1040.00,293.25 L1050.00,292.93 L1060.00,292.63 L1070.00,292.35 L1080.00,292.09 L1090.00,291.86 L1100.00,291.66 L1110.00,291.48 L1120.00,291.33 L1130.00,291.22 L1140.00,291.14 L1150.00,291.09 L1160.00,291.07 L1170.00,291.09 L1180.00,291.15 L1190.00,291.25 L1200.00,291.38" fill="none" stroke="url(#signal-0)" stroke-width="7" opacity="0.06"/>
      <path d="M0.00,308.80 L10.00,309.33 L20.00,309.84 L30.00,310.32 L40.00,310.77 L50.00,311.19 L60.00,311.58 L70.00,311.94 L80.00,312.27 L90.00,312.57 L100.00,312.85 L110.00,313.09 L120.00,313.30 L130.00,313.48 L140.00,313.64 L150.00,313.76 L160.00,313.86 L170.00,313.93 L180.00,313.98 L190.00,314.00 L200.00,314.00 L210.00,313.97 L220.00,313.93 L230.00,313.86 L240.00,313.78 L250.00,313.68 L260.00,313.56 L270.00,313.43 L280.00,313.28 L290.00,313.13 L300.00,312.96 L310.00,312.78 L320.00,312.59 L330.00,312.40 L340.00,312.20 L350.00,312.00 L360.00,311.79 L370.00,311.59 L380.00,311.37 L390.00,311.16 L400.00,310.95 L410.00,310.74 L420.00,310.53 L430.00,310.33 L440.00,310.12 L450.00,309.92 L460.00,309.72 L470.00,309.53 L480.00,309.34 L490.00,309.15 L500.00,308.97 L510.00,308.79 L520.00,308.61 L530.00,308.44 L540.00,308.27 L550.00,308.10 L560.00,307.93 L570.00,307.76 L580.00,307.60 L590.00,307.43 L600.00,307.26 L610.00,307.09 L620.00,306.92 L630.00,306.75 L640.00,306.57 L650.00,306.39 L660.00,306.20 L670.00,306.00 L680.00,305.80 L690.00,305.59 L700.00,305.37 L710.00,305.15 L720.00,304.91 L730.00,304.67 L740.00,304.41 L750.00,304.14 L760.00,303.86 L770.00,303.57 L780.00,303.27 L790.00,302.96 L800.00,302.64 L810.00,302.30 L820.00,301.96 L830.00,301.60 L840.00,301.23 L850.00,300.85 L860.00,300.47 L870.00,300.07 L880.00,299.67 L890.00,299.26 L900.00,298.85 L910.00,298.43 L920.00,298.01 L930.00,297.59 L940.00,297.16 L950.00,296.74 L960.00,296.32 L970.00,295.90 L980.00,295.49 L990.00,295.09 L1000.00,294.69 L1010.00,294.31 L1020.00,293.94 L1030.00,293.59 L1040.00,293.25 L1050.00,292.93 L1060.00,292.63 L1070.00,292.35 L1080.00,292.09 L1090.00,291.86 L1100.00,291.66 L1110.00,291.48 L1120.00,291.33 L1130.00,291.22 L1140.00,291.14 L1150.00,291.09 L1160.00,291.07 L1170.00,291.09 L1180.00,291.15 L1190.00,291.25 L1200.00,291.38" fill="none" stroke="url(#signal-0)" stroke-width="1.8" opacity="0.72"/>
      <circle cx="0" cy="308.8" r="5" fill="#00f0ff" opacity="0"/>
      <circle cx="0" cy="308.8" r="1.8" fill="#00f0ff" opacity="0"/><path d="M0.00,319.22 L10.00,319.64 L20.00,320.04 L30.00,320.40 L40.00,320.72 L50.00,321.01 L60.00,321.27 L70.00,321.50 L80.00,321.69 L90.00,321.85 L100.00,321.97 L110.00,322.07 L120.00,322.13 L130.00,322.17 L140.00,322.17 L150.00,322.15 L160.00,322.10 L170.00,322.02 L180.00,321.92 L190.00,321.80 L200.00,321.65 L210.00,321.49 L220.00,321.31 L230.00,321.10 L240.00,320.89 L250.00,320.66 L260.00,320.41 L270.00,320.16 L280.00,319.90 L290.00,319.62 L300.00,319.35 L310.00,319.06 L320.00,318.77 L330.00,318.48 L340.00,318.19 L350.00,317.89 L360.00,317.60 L370.00,317.31 L380.00,317.02 L390.00,316.73 L400.00,316.45 L410.00,316.17 L420.00,315.89 L430.00,315.63 L440.00,315.36 L450.00,315.11 L460.00,314.86 L470.00,314.61 L480.00,314.37 L490.00,314.14 L500.00,313.91 L510.00,313.69 L520.00,313.48 L530.00,313.27 L540.00,313.06 L550.00,312.86 L560.00,312.66 L570.00,312.46 L580.00,312.26 L590.00,312.07 L600.00,311.88 L610.00,311.68 L620.00,311.49 L630.00,311.29 L640.00,311.09 L650.00,310.89 L660.00,310.69 L670.00,310.48 L680.00,310.26 L690.00,310.04 L700.00,309.81 L710.00,309.58 L720.00,309.34 L730.00,309.09 L740.00,308.83 L750.00,308.57 L760.00,308.30 L770.00,308.02 L780.00,307.73 L790.00,307.43 L800.00,307.13 L810.00,306.81 L820.00,306.50 L830.00,306.17 L840.00,305.84 L850.00,305.51 L860.00,305.17 L870.00,304.83 L880.00,304.48 L890.00,304.14 L900.00,303.79 L910.00,303.45 L920.00,303.10 L930.00,302.77 L940.00,302.43 L950.00,302.11 L960.00,301.79 L970.00,301.48 L980.00,301.19 L990.00,300.91 L1000.00,300.64 L1010.00,300.39 L1020.00,300.15 L1030.00,299.94 L1040.00,299.75 L1050.00,299.58 L1060.00,299.43 L1070.00,299.31 L1080.00,299.22 L1090.00,299.16 L1100.00,299.12 L1110.00,299.12 L1120.00,299.14 L1130.00,299.20 L1140.00,299.30 L1150.00,299.43 L1160.00,299.59 L1170.00,299.79 L1180.00,300.02 L1190.00,300.29 L1200.00,300.60" fill="none" stroke="url(#signal-1)" stroke-width="7" opacity="0.06"/>
      <path d="M0.00,319.22 L10.00,319.64 L20.00,320.04 L30.00,320.40 L40.00,320.72 L50.00,321.01 L60.00,321.27 L70.00,321.50 L80.00,321.69 L90.00,321.85 L100.00,321.97 L110.00,322.07 L120.00,322.13 L130.00,322.17 L140.00,322.17 L150.00,322.15 L160.00,322.10 L170.00,322.02 L180.00,321.92 L190.00,321.80 L200.00,321.65 L210.00,321.49 L220.00,321.31 L230.00,321.10 L240.00,320.89 L250.00,320.66 L260.00,320.41 L270.00,320.16 L280.00,319.90 L290.00,319.62 L300.00,319.35 L310.00,319.06 L320.00,318.77 L330.00,318.48 L340.00,318.19 L350.00,317.89 L360.00,317.60 L370.00,317.31 L380.00,317.02 L390.00,316.73 L400.00,316.45 L410.00,316.17 L420.00,315.89 L430.00,315.63 L440.00,315.36 L450.00,315.11 L460.00,314.86 L470.00,314.61 L480.00,314.37 L490.00,314.14 L500.00,313.91 L510.00,313.69 L520.00,313.48 L530.00,313.27 L540.00,313.06 L550.00,312.86 L560.00,312.66 L570.00,312.46 L580.00,312.26 L590.00,312.07 L600.00,311.88 L610.00,311.68 L620.00,311.49 L630.00,311.29 L640.00,311.09 L650.00,310.89 L660.00,310.69 L670.00,310.48 L680.00,310.26 L690.00,310.04 L700.00,309.81 L710.00,309.58 L720.00,309.34 L730.00,309.09 L740.00,308.83 L750.00,308.57 L760.00,308.30 L770.00,308.02 L780.00,307.73 L790.00,307.43 L800.00,307.13 L810.00,306.81 L820.00,306.50 L830.00,306.17 L840.00,305.84 L850.00,305.51 L860.00,305.17 L870.00,304.83 L880.00,304.48 L890.00,304.14 L900.00,303.79 L910.00,303.45 L920.00,303.10 L930.00,302.77 L940.00,302.43 L950.00,302.11 L960.00,301.79 L970.00,301.48 L980.00,301.19 L990.00,300.91 L1000.00,300.64 L1010.00,300.39 L1020.00,300.15 L1030.00,299.94 L1040.00,299.75 L1050.00,299.58 L1060.00,299.43 L1070.00,299.31 L1080.00,299.22 L1090.00,299.16 L1100.00,299.12 L1110.00,299.12 L1120.00,299.14 L1130.00,299.20 L1140.00,299.30 L1150.00,299.43 L1160.00,299.59 L1170.00,299.79 L1180.00,300.02 L1190.00,300.29 L1200.00,300.60" fill="none" stroke="url(#signal-1)" stroke-width="1.1" opacity="0.72"/>
      <circle cx="252" cy="320.61043381582294" r="5" fill="#a879ff" opacity="0.04507860677010869"/>
      <circle cx="252" cy="320.61043381582294" r="1.8" fill="#a879ff" opacity="0.3380895507758152"/><path d="M0.00,329.08 L10.00,329.35 L20.00,329.59 L30.00,329.79 L40.00,329.96 L50.00,330.09 L60.00,330.18 L70.00,330.24 L80.00,330.27 L90.00,330.26 L100.00,330.22 L110.00,330.15 L120.00,330.05 L130.00,329.92 L140.00,329.76 L150.00,329.58 L160.00,329.37 L170.00,329.14 L180.00,328.89 L190.00,328.62 L200.00,328.34 L210.00,328.03 L220.00,327.71 L230.00,327.38 L240.00,327.04 L250.00,326.69 L260.00,326.33 L270.00,325.97 L280.00,325.60 L290.00,325.23 L300.00,324.85 L310.00,324.48 L320.00,324.11 L330.00,323.74 L340.00,323.37 L350.00,323.00 L360.00,322.65 L370.00,322.29 L380.00,321.95 L390.00,321.61 L400.00,321.28 L410.00,320.96 L420.00,320.64 L430.00,320.34 L440.00,320.04 L450.00,319.76 L460.00,319.48 L470.00,319.22 L480.00,318.96 L490.00,318.71 L500.00,318.47 L510.00,318.23 L520.00,318.01 L530.00,317.79 L540.00,317.58 L550.00,317.37 L560.00,317.17 L570.00,316.97 L580.00,316.77 L590.00,316.58 L600.00,316.39 L610.00,316.21 L620.00,316.02 L630.00,315.83 L640.00,315.64 L650.00,315.45 L660.00,315.26 L670.00,315.07 L680.00,314.87 L690.00,314.67 L700.00,314.46 L710.00,314.25 L720.00,314.03 L730.00,313.81 L740.00,313.59 L750.00,313.36 L760.00,313.12 L770.00,312.88 L780.00,312.64 L790.00,312.39 L800.00,312.13 L810.00,311.88 L820.00,311.62 L830.00,311.35 L840.00,311.09 L850.00,310.82 L860.00,310.56 L870.00,310.30 L880.00,310.04 L890.00,309.78 L900.00,309.53 L910.00,309.28 L920.00,309.04 L930.00,308.81 L940.00,308.59 L950.00,308.38 L960.00,308.19 L970.00,308.01 L980.00,307.84 L990.00,307.69 L1000.00,307.56 L1010.00,307.45 L1020.00,307.36 L1030.00,307.30 L1040.00,307.26 L1050.00,307.24 L1060.00,307.25 L1070.00,307.29 L1080.00,307.36 L1090.00,307.45 L1100.00,307.58 L1110.00,307.73 L1120.00,307.92 L1130.00,308.14 L1140.00,308.39 L1150.00,308.68 L1160.00,308.99 L1170.00,309.34 L1180.00,309.72 L1190.00,310.14 L1200.00,310.58" fill="none" stroke="url(#signal-2)" stroke-width="7" opacity="0.06"/>
      <path d="M0.00,329.08 L10.00,329.35 L20.00,329.59 L30.00,329.79 L40.00,329.96 L50.00,330.09 L60.00,330.18 L70.00,330.24 L80.00,330.27 L90.00,330.26 L100.00,330.22 L110.00,330.15 L120.00,330.05 L130.00,329.92 L140.00,329.76 L150.00,329.58 L160.00,329.37 L170.00,329.14 L180.00,328.89 L190.00,328.62 L200.00,328.34 L210.00,328.03 L220.00,327.71 L230.00,327.38 L240.00,327.04 L250.00,326.69 L260.00,326.33 L270.00,325.97 L280.00,325.60 L290.00,325.23 L300.00,324.85 L310.00,324.48 L320.00,324.11 L330.00,323.74 L340.00,323.37 L350.00,323.00 L360.00,322.65 L370.00,322.29 L380.00,321.95 L390.00,321.61 L400.00,321.28 L410.00,320.96 L420.00,320.64 L430.00,320.34 L440.00,320.04 L450.00,319.76 L460.00,319.48 L470.00,319.22 L480.00,318.96 L490.00,318.71 L500.00,318.47 L510.00,318.23 L520.00,318.01 L530.00,317.79 L540.00,317.58 L550.00,317.37 L560.00,317.17 L570.00,316.97 L580.00,316.77 L590.00,316.58 L600.00,316.39 L610.00,316.21 L620.00,316.02 L630.00,315.83 L640.00,315.64 L650.00,315.45 L660.00,315.26 L670.00,315.07 L680.00,314.87 L690.00,314.67 L700.00,314.46 L710.00,314.25 L720.00,314.03 L730.00,313.81 L740.00,313.59 L750.00,313.36 L760.00,313.12 L770.00,312.88 L780.00,312.64 L790.00,312.39 L800.00,312.13 L810.00,311.88 L820.00,311.62 L830.00,311.35 L840.00,311.09 L850.00,310.82 L860.00,310.56 L870.00,310.30 L880.00,310.04 L890.00,309.78 L900.00,309.53 L910.00,309.28 L920.00,309.04 L930.00,308.81 L940.00,308.59 L950.00,308.38 L960.00,308.19 L970.00,308.01 L980.00,307.84 L990.00,307.69 L1000.00,307.56 L1010.00,307.45 L1020.00,307.36 L1030.00,307.30 L1040.00,307.26 L1050.00,307.24 L1060.00,307.25 L1070.00,307.29 L1080.00,307.36 L1090.00,307.45 L1100.00,307.58 L1110.00,307.73 L1120.00,307.92 L1130.00,308.14 L1140.00,308.39 L1150.00,308.68 L1160.00,308.99 L1170.00,309.34 L1180.00,309.72 L1190.00,310.14 L1200.00,310.58" fill="none" stroke="url(#signal-2)" stroke-width="1.8" opacity="0.72"/>
      <circle cx="504" cy="318.37220341728164" r="5" fill="#ff4da6" opacity="0.1125784008026318"/>
      <circle cx="504" cy="318.37220341728164" r="1.8" fill="#ff4da6" opacity="0.8443380060197386"/><path d="M0.00,338.10 L10.00,338.20 L20.00,338.26 L30.00,338.28 L40.00,338.26 L50.00,338.21 L60.00,338.12 L70.00,338.00 L80.00,337.84 L90.00,337.66 L100.00,337.44 L110.00,337.20 L120.00,336.93 L130.00,336.64 L140.00,336.32 L150.00,335.98 L160.00,335.62 L170.00,335.25 L180.00,334.86 L190.00,334.45 L200.00,334.03 L210.00,333.61 L220.00,333.17 L230.00,332.73 L240.00,332.28 L250.00,331.84 L260.00,331.38 L270.00,330.93 L280.00,330.48 L290.00,330.04 L300.00,329.60 L310.00,329.16 L320.00,328.73 L330.00,328.31 L340.00,327.90 L350.00,327.49 L360.00,327.10 L370.00,326.72 L380.00,326.35 L390.00,325.99 L400.00,325.65 L410.00,325.31 L420.00,324.99 L430.00,324.69 L440.00,324.39 L450.00,324.11 L460.00,323.84 L470.00,323.58 L480.00,323.34 L490.00,323.10 L500.00,322.88 L510.00,322.66 L520.00,322.46 L530.00,322.26 L540.00,322.08 L550.00,321.90 L560.00,321.72 L570.00,321.55 L580.00,321.39 L590.00,321.23 L600.00,321.08 L610.00,320.92 L620.00,320.77 L630.00,320.62 L640.00,320.47 L650.00,320.32 L660.00,320.17 L670.00,320.02 L680.00,319.87 L690.00,319.71 L700.00,319.56 L710.00,319.40 L720.00,319.23 L730.00,319.07 L740.00,318.90 L750.00,318.73 L760.00,318.56 L770.00,318.38 L780.00,318.20 L790.00,318.02 L800.00,317.84 L810.00,317.66 L820.00,317.48 L830.00,317.30 L840.00,317.12 L850.00,316.95 L860.00,316.78 L870.00,316.61 L880.00,316.45 L890.00,316.30 L900.00,316.15 L910.00,316.02 L920.00,315.89 L930.00,315.78 L940.00,315.68 L950.00,315.60 L960.00,315.53 L970.00,315.47 L980.00,315.44 L990.00,315.43 L1000.00,315.44 L1010.00,315.46 L1020.00,315.52 L1030.00,315.59 L1040.00,315.69 L1050.00,315.82 L1060.00,315.97 L1070.00,316.15 L1080.00,316.36 L1090.00,316.60 L1100.00,316.86 L1110.00,317.15 L1120.00,317.47 L1130.00,317.83 L1140.00,318.20 L1150.00,318.61 L1160.00,319.05 L1170.00,319.51 L1180.00,320.00 L1190.00,320.52 L1200.00,321.06" fill="none" stroke="url(#signal-3)" stroke-width="7" opacity="0.06"/>
      <path d="M0.00,338.10 L10.00,338.20 L20.00,338.26 L30.00,338.28 L40.00,338.26 L50.00,338.21 L60.00,338.12 L70.00,338.00 L80.00,337.84 L90.00,337.66 L100.00,337.44 L110.00,337.20 L120.00,336.93 L130.00,336.64 L140.00,336.32 L150.00,335.98 L160.00,335.62 L170.00,335.25 L180.00,334.86 L190.00,334.45 L200.00,334.03 L210.00,333.61 L220.00,333.17 L230.00,332.73 L240.00,332.28 L250.00,331.84 L260.00,331.38 L270.00,330.93 L280.00,330.48 L290.00,330.04 L300.00,329.60 L310.00,329.16 L320.00,328.73 L330.00,328.31 L340.00,327.90 L350.00,327.49 L360.00,327.10 L370.00,326.72 L380.00,326.35 L390.00,325.99 L400.00,325.65 L410.00,325.31 L420.00,324.99 L430.00,324.69 L440.00,324.39 L450.00,324.11 L460.00,323.84 L470.00,323.58 L480.00,323.34 L490.00,323.10 L500.00,322.88 L510.00,322.66 L520.00,322.46 L530.00,322.26 L540.00,322.08 L550.00,321.90 L560.00,321.72 L570.00,321.55 L580.00,321.39 L590.00,321.23 L600.00,321.08 L610.00,320.92 L620.00,320.77 L630.00,320.62 L640.00,320.47 L650.00,320.32 L660.00,320.17 L670.00,320.02 L680.00,319.87 L690.00,319.71 L700.00,319.56 L710.00,319.40 L720.00,319.23 L730.00,319.07 L740.00,318.90 L750.00,318.73 L760.00,318.56 L770.00,318.38 L780.00,318.20 L790.00,318.02 L800.00,317.84 L810.00,317.66 L820.00,317.48 L830.00,317.30 L840.00,317.12 L850.00,316.95 L860.00,316.78 L870.00,316.61 L880.00,316.45 L890.00,316.30 L900.00,316.15 L910.00,316.02 L920.00,315.89 L930.00,315.78 L940.00,315.68 L950.00,315.60 L960.00,315.53 L970.00,315.47 L980.00,315.44 L990.00,315.43 L1000.00,315.44 L1010.00,315.46 L1020.00,315.52 L1030.00,315.59 L1040.00,315.69 L1050.00,315.82 L1060.00,315.97 L1070.00,316.15 L1080.00,316.36 L1090.00,316.60 L1100.00,316.86 L1110.00,317.15 L1120.00,317.47 L1130.00,317.83 L1140.00,318.20 L1150.00,318.61 L1160.00,319.05 L1170.00,319.51 L1180.00,320.00 L1190.00,320.52 L1200.00,321.06" fill="none" stroke="url(#signal-3)" stroke-width="1.1" opacity="0.72"/>
      <circle cx="756" cy="318.62494999880937" r="5" fill="#ffb347" opacity="0.10107282635572135"/>
      <circle cx="756" cy="318.62494999880937" r="1.8" fill="#ffb347" opacity="0.7580461976679101"/><path d="M0.00,346.09 L10.00,345.99 L20.00,345.85 L30.00,345.68 L40.00,345.47 L50.00,345.23 L60.00,344.96 L70.00,344.65 L80.00,344.32 L90.00,343.96 L100.00,343.58 L110.00,343.17 L120.00,342.75 L130.00,342.30 L140.00,341.84 L150.00,341.36 L160.00,340.87 L170.00,340.37 L180.00,339.86 L190.00,339.35 L200.00,338.83 L210.00,338.31 L220.00,337.78 L230.00,337.26 L240.00,336.74 L250.00,336.22 L260.00,335.71 L270.00,335.21 L280.00,334.72 L290.00,334.23 L300.00,333.76 L310.00,333.30 L320.00,332.85 L330.00,332.41 L340.00,331.99 L350.00,331.59 L360.00,331.20 L370.00,330.82 L380.00,330.47 L390.00,330.12 L400.00,329.80 L410.00,329.49 L420.00,329.20 L430.00,328.93 L440.00,328.67 L450.00,328.42 L460.00,328.19 L470.00,327.98 L480.00,327.78 L490.00,327.59 L500.00,327.42 L510.00,327.25 L520.00,327.10 L530.00,326.96 L540.00,326.82 L550.00,326.70 L560.00,326.58 L570.00,326.47 L580.00,326.37 L590.00,326.27 L600.00,326.17 L610.00,326.08 L620.00,325.99 L630.00,325.90 L640.00,325.82 L650.00,325.73 L660.00,325.64 L670.00,325.56 L680.00,325.47 L690.00,325.38 L700.00,325.30 L710.00,325.21 L720.00,325.12 L730.00,325.02 L740.00,324.93 L750.00,324.83 L760.00,324.74 L770.00,324.64 L780.00,324.55 L790.00,324.45 L800.00,324.36 L810.00,324.27 L820.00,324.18 L830.00,324.09 L840.00,324.01 L850.00,323.93 L860.00,323.86 L870.00,323.80 L880.00,323.74 L890.00,323.70 L900.00,323.66 L910.00,323.64 L920.00,323.63 L930.00,323.63 L940.00,323.65 L950.00,323.69 L960.00,323.74 L970.00,323.81 L980.00,323.90 L990.00,324.01 L1000.00,324.14 L1010.00,324.29 L1020.00,324.47 L1030.00,324.66 L1040.00,324.89 L1050.00,325.13 L1060.00,325.40 L1070.00,325.70 L1080.00,326.02 L1090.00,326.36 L1100.00,326.74 L1110.00,327.13 L1120.00,327.55 L1130.00,328.00 L1140.00,328.46 L1150.00,328.95 L1160.00,329.46 L1170.00,330.00 L1180.00,330.55 L1190.00,331.12 L1200.00,331.71" fill="none" stroke="url(#signal-4)" stroke-width="7" opacity="0.06"/>
      <path d="M0.00,346.09 L10.00,345.99 L20.00,345.85 L30.00,345.68 L40.00,345.47 L50.00,345.23 L60.00,344.96 L70.00,344.65 L80.00,344.32 L90.00,343.96 L100.00,343.58 L110.00,343.17 L120.00,342.75 L130.00,342.30 L140.00,341.84 L150.00,341.36 L160.00,340.87 L170.00,340.37 L180.00,339.86 L190.00,339.35 L200.00,338.83 L210.00,338.31 L220.00,337.78 L230.00,337.26 L240.00,336.74 L250.00,336.22 L260.00,335.71 L270.00,335.21 L280.00,334.72 L290.00,334.23 L300.00,333.76 L310.00,333.30 L320.00,332.85 L330.00,332.41 L340.00,331.99 L350.00,331.59 L360.00,331.20 L370.00,330.82 L380.00,330.47 L390.00,330.12 L400.00,329.80 L410.00,329.49 L420.00,329.20 L430.00,328.93 L440.00,328.67 L450.00,328.42 L460.00,328.19 L470.00,327.98 L480.00,327.78 L490.00,327.59 L500.00,327.42 L510.00,327.25 L520.00,327.10 L530.00,326.96 L540.00,326.82 L550.00,326.70 L560.00,326.58 L570.00,326.47 L580.00,326.37 L590.00,326.27 L600.00,326.17 L610.00,326.08 L620.00,325.99 L630.00,325.90 L640.00,325.82 L650.00,325.73 L660.00,325.64 L670.00,325.56 L680.00,325.47 L690.00,325.38 L700.00,325.30 L710.00,325.21 L720.00,325.12 L730.00,325.02 L740.00,324.93 L750.00,324.83 L760.00,324.74 L770.00,324.64 L780.00,324.55 L790.00,324.45 L800.00,324.36 L810.00,324.27 L820.00,324.18 L830.00,324.09 L840.00,324.01 L850.00,323.93 L860.00,323.86 L870.00,323.80 L880.00,323.74 L890.00,323.70 L900.00,323.66 L910.00,323.64 L920.00,323.63 L930.00,323.63 L940.00,323.65 L950.00,323.69 L960.00,323.74 L970.00,323.81 L980.00,323.90 L990.00,324.01 L1000.00,324.14 L1010.00,324.29 L1020.00,324.47 L1030.00,324.66 L1040.00,324.89 L1050.00,325.13 L1060.00,325.40 L1070.00,325.70 L1080.00,326.02 L1090.00,326.36 L1100.00,326.74 L1110.00,327.13 L1120.00,327.55 L1130.00,328.00 L1140.00,328.46 L1150.00,328.95 L1160.00,329.46 L1170.00,330.00 L1180.00,330.55 L1190.00,331.12 L1200.00,331.71" fill="none" stroke="url(#signal-4)" stroke-width="1.8" opacity="0.72"/>
      <circle cx="1008" cy="324.25912466987296" r="5" fill="#579bff" opacity="0.02785039230126024"/>
      <circle cx="1008" cy="324.25912466987296" r="1.8" fill="#579bff" opacity="0.2088779422594518"/>
  <rect width="1200" height="360" rx="18" fill="url(#scan)"/>
  </svg>